<svg width="386" height="387" viewBox="0 0 386 387" fill="none" xmlns="http://www.w3.org/2000/svg">
<path d="M385.609 157.032C385.606 158.965 384.036 160.53 382.103 160.526L350.603 160.474C348.67 160.471 347.106 158.901 347.109 156.968C347.112 155.035 348.682 153.471 350.615 153.474L378.615 153.521L378.662 125.521C378.665 123.588 380.234 122.023 382.167 122.026C384.1 122.03 385.665 123.599 385.662 125.532L385.609 157.032ZM233.63 11.1345C237.536 15.0407 240.054 16.0645 242.849 17.2294C246.06 18.5673 249.533 20.0428 254.392 24.9022L249.443 29.852C245.487 25.8966 242.942 24.8514 240.157 23.6908C236.956 22.357 233.5 20.9044 228.68 16.0842L233.63 11.1345ZM254.392 24.9022C259.236 29.7463 260.867 33.3595 262.36 36.6919C263.707 39.6979 264.916 42.4212 268.881 46.3855L263.931 51.3352C259.092 46.4965 257.465 42.8856 255.972 39.5544C254.626 36.5496 253.413 33.8227 249.443 29.852L254.392 24.9022ZM268.881 46.3855C272.828 50.3333 275.358 51.3648 278.133 52.5162C281.33 53.8427 284.781 55.2911 289.613 60.1225L284.663 65.0722C280.745 61.1543 278.232 60.1358 275.45 58.9817C272.248 57.6528 268.786 56.1905 263.931 51.3352L268.881 46.3855ZM289.613 60.1225C294.433 64.9427 295.99 68.4922 297.427 71.7745C298.709 74.7006 299.875 77.38 303.872 81.3769L298.922 86.3267C294.047 81.4512 292.458 77.8779 291.015 74.5823C289.728 71.6428 288.592 69.0013 284.663 65.0722L289.613 60.1225ZM303.872 81.3769C307.872 85.3771 310.588 86.5763 313.527 87.8701C316.806 89.3138 320.355 90.8646 325.103 95.6126L320.153 100.562C316.305 96.7146 313.675 95.5838 310.706 94.2767C307.397 92.8197 303.795 91.199 298.922 86.3267L303.872 81.3769ZM325.103 95.6126C329.876 100.386 331.195 103.727 332.407 106.83C333.428 109.446 334.349 111.854 338.266 115.771L333.316 120.72C328.47 115.874 327.107 112.501 325.887 109.377C324.857 106.741 323.975 104.385 320.153 100.562L325.103 95.6126ZM338.266 115.771C342.279 119.783 345.436 121.508 348.676 123.152C352.034 124.857 355.735 126.579 360.034 130.548L355.286 135.692C351.8 132.473 348.947 131.14 345.508 129.395C341.951 127.589 338.066 125.47 333.316 120.72L338.266 115.771ZM360.034 130.548C363.977 134.188 370.129 140.205 375.264 145.279C377.839 147.823 380.169 150.141 381.856 151.824C382.699 152.665 383.382 153.348 383.854 153.82C384.09 154.056 384.273 154.24 384.398 154.365C384.46 154.427 384.507 154.475 384.539 154.507C384.555 154.523 384.567 154.535 384.576 154.543C384.58 154.547 384.583 154.55 384.585 154.552C384.586 154.553 384.587 154.554 384.587 154.555C384.588 154.555 384.588 154.555 384.588 154.555C384.588 154.556 384.588 154.556 382.109 157.026C379.63 159.497 379.63 159.497 379.63 159.497C379.63 159.497 379.63 159.497 379.629 159.496C379.629 159.496 379.628 159.495 379.627 159.494C379.625 159.492 379.622 159.489 379.618 159.485C379.61 159.477 379.599 159.465 379.583 159.45C379.551 159.418 379.504 159.371 379.443 159.309C379.319 159.185 379.137 159.003 378.902 158.768C378.432 158.298 377.752 157.618 376.912 156.78C375.231 155.103 372.909 152.792 370.344 150.258C365.201 145.176 359.129 139.239 355.286 135.692L360.034 130.548Z" fill="#DFEEFA"/>
<path d="M305.609 157.032C305.606 158.965 304.036 160.53 302.103 160.526L270.603 160.474C268.67 160.471 267.106 158.901 267.109 156.968C267.112 155.035 268.682 153.471 270.615 153.474L298.615 153.521L298.662 125.521C298.665 123.588 300.234 122.023 302.167 122.026C304.1 122.03 305.665 123.599 305.662 125.532L305.609 157.032ZM153.63 11.1345C157.536 15.0407 160.054 16.0645 162.849 17.2294C166.06 18.5673 169.533 20.0428 174.392 24.9022L169.443 29.852C165.487 25.8966 162.942 24.8514 160.157 23.6908C156.956 22.357 153.5 20.9044 148.68 16.0842L153.63 11.1345ZM174.392 24.9022C179.236 29.7463 180.867 33.3595 182.36 36.6919C183.707 39.6979 184.916 42.4212 188.881 46.3855L183.931 51.3352C179.092 46.4965 177.465 42.8856 175.972 39.5544C174.626 36.5496 173.413 33.8227 169.443 29.852L174.392 24.9022ZM188.881 46.3855C192.828 50.3333 195.358 51.3648 198.133 52.5162C201.33 53.8427 204.781 55.2911 209.613 60.1225L204.663 65.0722C200.745 61.1543 198.232 60.1358 195.45 58.9817C192.248 57.6528 188.786 56.1905 183.931 51.3352L188.881 46.3855ZM209.613 60.1225C214.433 64.9427 215.99 68.4922 217.427 71.7745C218.709 74.7006 219.875 77.38 223.872 81.3769L218.922 86.3267C214.047 81.4512 212.458 77.8779 211.015 74.5823C209.728 71.6428 208.592 69.0013 204.663 65.0722L209.613 60.1225ZM223.872 81.3769C227.872 85.3771 230.588 86.5763 233.527 87.8701C236.806 89.3138 240.355 90.8646 245.103 95.6126L240.153 100.562C236.305 96.7146 233.675 95.5838 230.706 94.2767C227.397 92.8197 223.795 91.199 218.922 86.3267L223.872 81.3769ZM245.103 95.6126C249.876 100.386 251.195 103.727 252.407 106.83C253.428 109.446 254.349 111.854 258.266 115.771L253.316 120.72C248.47 115.874 247.107 112.501 245.887 109.377C244.857 106.741 243.975 104.385 240.153 100.562L245.103 95.6126ZM258.266 115.771C262.279 119.783 265.436 121.508 268.676 123.152C272.034 124.857 275.735 126.579 280.034 130.548L275.286 135.692C271.8 132.473 268.947 131.14 265.508 129.395C261.951 127.589 258.066 125.47 253.316 120.72L258.266 115.771ZM280.034 130.548C283.977 134.188 290.129 140.205 295.264 145.279C297.839 147.823 300.169 150.141 301.856 151.824C302.699 152.665 303.382 153.348 303.854 153.82C304.09 154.056 304.273 154.24 304.398 154.365C304.46 154.427 304.507 154.475 304.539 154.507C304.555 154.523 304.567 154.535 304.576 154.543C304.58 154.547 304.583 154.55 304.585 154.552C304.586 154.553 304.587 154.554 304.587 154.555C304.588 154.555 304.588 154.555 304.588 154.555C304.588 154.556 304.588 154.556 302.109 157.026C299.63 159.497 299.63 159.497 299.63 159.497C299.63 159.497 299.63 159.497 299.629 159.496C299.629 159.496 299.628 159.495 299.627 159.494C299.625 159.492 299.622 159.489 299.618 159.485C299.61 159.477 299.599 159.465 299.583 159.45C299.551 159.418 299.504 159.371 299.443 159.309C299.319 159.185 299.137 159.003 298.902 158.768C298.432 158.298 297.752 157.618 296.912 156.78C295.231 155.103 292.909 152.792 290.344 150.258C285.201 145.176 279.129 139.239 275.286 135.692L280.034 130.548Z" fill="#DFEEFA"/>
<path d="M225.609 157.032C225.606 158.965 224.036 160.53 222.103 160.526L190.603 160.474C188.67 160.471 187.106 158.901 187.109 156.968C187.112 155.035 188.682 153.471 190.615 153.474L218.615 153.521L218.662 125.521C218.665 123.588 220.234 122.023 222.167 122.027C224.1 122.03 225.665 123.599 225.662 125.532L225.609 157.032ZM165.103 95.6127C169.876 100.386 171.195 103.727 172.407 106.83C173.429 109.446 174.349 111.854 178.266 115.771L173.316 120.72C168.47 115.874 167.107 112.501 165.887 109.377C164.857 106.741 163.975 104.385 160.153 100.562L165.103 95.6127ZM178.266 115.771C182.279 119.784 185.436 121.508 188.676 123.152C192.034 124.857 195.735 126.579 200.034 130.548L195.286 135.692C191.8 132.473 188.947 131.14 185.508 129.395C181.951 127.589 178.066 125.47 173.316 120.72L178.266 115.771ZM200.034 130.548C203.977 134.188 210.129 140.205 215.264 145.279C217.839 147.823 220.169 150.141 221.856 151.824C222.699 152.665 223.382 153.348 223.854 153.82C224.09 154.056 224.273 154.24 224.398 154.365C224.46 154.427 224.507 154.475 224.539 154.507C224.555 154.523 224.568 154.535 224.576 154.543C224.58 154.547 224.583 154.55 224.585 154.552C224.586 154.554 224.587 154.554 224.587 154.555C224.588 154.555 224.588 154.555 224.588 154.555C224.588 154.556 224.588 154.556 222.109 157.026C219.63 159.497 219.63 159.497 219.63 159.497C219.63 159.497 219.63 159.497 219.63 159.497C219.629 159.496 219.628 159.495 219.627 159.494C219.625 159.492 219.622 159.489 219.618 159.485C219.611 159.477 219.599 159.466 219.583 159.45C219.551 159.418 219.504 159.371 219.443 159.309C219.319 159.186 219.137 159.003 218.902 158.768C218.433 158.298 217.753 157.618 216.912 156.78C215.231 155.103 212.909 152.792 210.344 150.258C205.201 145.176 199.129 139.239 195.286 135.692L200.034 130.548Z" fill="#DFEEFA"/>
<path d="M157.609 302.263C157.605 304.196 156.036 305.76 154.103 305.757L122.603 305.704C120.67 305.701 119.105 304.132 119.109 302.199C119.112 300.266 120.682 298.701 122.615 298.704L150.614 298.751L150.661 270.751C150.664 268.818 152.234 267.254 154.167 267.257C156.1 267.26 157.664 268.83 157.661 270.763L157.609 302.263ZM5.62917 156.365C9.53536 160.271 12.0534 161.295 14.8487 162.46C18.0596 163.798 21.5324 165.273 26.3918 170.133L21.442 175.082C17.4867 171.127 14.9413 170.082 12.1562 168.921C8.95546 167.588 5.49956 166.135 0.679423 161.315L5.62917 156.365ZM26.3918 170.133C31.2358 174.977 32.8662 178.59 34.3595 181.922C35.7065 184.928 36.9159 187.652 40.8802 191.616L35.9304 196.566C31.0917 191.727 29.4643 188.116 27.9715 184.785C26.6251 181.78 25.4128 179.053 21.442 175.082L26.3918 170.133ZM40.8802 191.616C44.8279 195.564 47.3577 196.595 50.1327 197.747C53.3294 199.073 56.7806 200.522 61.612 205.353L56.6623 210.303C52.7444 206.385 50.2311 205.366 47.45 204.212C44.2471 202.883 40.7856 201.421 35.9304 196.566L40.8802 191.616ZM61.612 205.353C66.4322 210.173 67.9896 213.723 69.4269 217.005C70.7081 219.931 71.8746 222.61 75.8716 226.607L70.9218 231.557C66.0463 226.682 64.4577 223.108 63.0146 219.813C61.7275 216.873 60.5913 214.232 56.6623 210.303L61.612 205.353ZM75.8716 226.607C79.8717 230.608 82.5872 231.807 85.5261 233.101C88.8053 234.544 92.3542 236.095 97.1021 240.843L92.1524 245.793C88.3047 241.945 85.6745 240.814 82.7055 239.507C79.3961 238.05 75.7941 236.429 70.9218 231.557L75.8716 226.607ZM97.1021 240.843C101.875 245.616 103.194 248.958 104.406 252.061C105.428 254.676 106.349 257.085 110.265 261.001L105.316 265.951C100.469 261.105 99.1062 257.731 97.886 254.608C96.8562 251.971 95.9749 249.615 92.1524 245.793L97.1021 240.843ZM110.265 261.001C114.278 265.014 117.435 266.739 120.675 268.383C124.034 270.087 127.735 271.81 132.034 275.779L127.285 280.922C123.799 277.703 120.947 276.37 117.508 274.625C113.95 272.82 110.065 270.701 105.316 265.951L110.265 261.001ZM132.034 275.779C135.976 279.418 142.129 285.435 147.264 290.509C149.838 293.053 152.169 295.372 153.855 297.054C154.699 297.896 155.381 298.578 155.853 299.05C156.089 299.287 156.273 299.47 156.397 299.595C156.459 299.657 156.507 299.705 156.539 299.737C156.555 299.753 156.567 299.765 156.575 299.774C156.579 299.778 156.582 299.781 156.584 299.783C156.585 299.784 156.586 299.785 156.587 299.785C156.587 299.786 156.587 299.786 156.587 299.786C156.588 299.786 156.588 299.786 154.109 302.257C151.63 304.728 151.63 304.728 151.63 304.727C151.629 304.727 151.629 304.727 151.629 304.727C151.629 304.726 151.628 304.726 151.627 304.725C151.625 304.723 151.622 304.72 151.618 304.716C151.61 304.708 151.598 304.696 151.582 304.68C151.551 304.649 151.504 304.601 151.442 304.54C151.319 304.416 151.136 304.233 150.902 303.998C150.432 303.528 149.752 302.848 148.911 302.01C147.23 300.333 144.908 298.023 142.344 295.488C137.201 290.406 131.128 284.47 127.285 280.922L132.034 275.779Z" fill="#DFEEFA"/>
<path d="M157.609 222.263C157.606 224.196 156.036 225.76 154.103 225.757L122.603 225.705C120.67 225.701 119.106 224.132 119.109 222.199C119.112 220.266 120.682 218.701 122.615 218.705L150.615 218.751L150.661 190.751C150.664 188.818 152.234 187.254 154.167 187.257C156.1 187.26 157.664 188.83 157.661 190.763L157.609 222.263ZM97.1022 160.843C101.875 165.616 103.194 168.958 104.406 172.061C105.428 174.677 106.349 177.085 110.265 181.001L105.316 185.951C100.469 181.105 99.1063 177.731 97.8861 174.608C96.8563 171.971 95.975 169.615 92.1524 165.793L97.1022 160.843ZM110.265 181.001C114.278 185.014 117.435 186.739 120.675 188.383C124.034 190.087 127.735 191.81 132.034 195.779L127.286 200.922C123.799 197.703 120.947 196.37 117.508 194.625C113.95 192.82 110.066 190.701 105.316 185.951L110.265 181.001ZM132.034 195.779C135.976 199.418 142.129 205.435 147.264 210.509C149.838 213.053 152.169 215.372 153.855 217.054C154.699 217.896 155.381 218.578 155.853 219.051C156.089 219.287 156.273 219.47 156.397 219.595C156.459 219.658 156.507 219.705 156.539 219.737C156.555 219.753 156.567 219.765 156.575 219.774C156.579 219.778 156.582 219.781 156.585 219.783C156.586 219.784 156.586 219.785 156.587 219.785C156.587 219.786 156.587 219.786 156.587 219.786C156.588 219.786 156.588 219.786 154.109 222.257C151.63 224.728 151.63 224.728 151.63 224.728C151.629 224.727 151.629 224.727 151.629 224.727C151.629 224.727 151.628 224.726 151.627 224.725C151.625 224.723 151.622 224.72 151.618 224.716C151.61 224.708 151.598 224.696 151.582 224.68C151.551 224.649 151.504 224.602 151.442 224.54C151.319 224.416 151.137 224.233 150.902 223.998C150.432 223.528 149.752 222.849 148.912 222.01C147.231 220.333 144.908 218.023 142.344 215.489C137.201 210.406 131.128 204.47 127.286 200.922L132.034 195.779Z" fill="#DFEEFA"/>
<path d="M157.609 382.263C157.605 384.196 156.036 385.76 154.103 385.757L122.603 385.704C120.67 385.701 119.105 384.132 119.109 382.199C119.112 380.266 120.682 378.701 122.615 378.704L150.614 378.751L150.661 350.751C150.664 348.818 152.234 347.254 154.167 347.257C156.1 347.26 157.664 348.83 157.661 350.763L157.609 382.263ZM5.62917 236.365C9.53536 240.271 12.0534 241.295 14.8487 242.46C18.0596 243.798 21.5324 245.273 26.3918 250.133L21.442 255.082C17.4867 251.127 14.9413 250.082 12.1562 248.921C8.95546 247.588 5.49956 246.135 0.679423 241.315L5.62917 236.365ZM26.3918 250.133C31.2358 254.977 32.8662 258.59 34.3595 261.922C35.7065 264.928 36.9159 267.652 40.8802 271.616L35.9304 276.566C31.0917 271.727 29.4643 268.116 27.9715 264.785C26.6251 261.78 25.4128 259.053 21.442 255.082L26.3918 250.133ZM40.8802 271.616C44.8279 275.564 47.3577 276.595 50.1327 277.747C53.3294 279.073 56.7806 280.522 61.612 285.353L56.6623 290.303C52.7444 286.385 50.2311 285.366 47.45 284.212C44.2471 282.883 40.7856 281.421 35.9304 276.566L40.8802 271.616ZM61.612 285.353C66.4322 290.173 67.9896 293.723 69.4269 297.005C70.7081 299.931 71.8746 302.61 75.8716 306.607L70.9218 311.557C66.0463 306.682 64.4577 303.108 63.0146 299.813C61.7275 296.873 60.5913 294.232 56.6623 290.303L61.612 285.353ZM75.8716 306.607C79.8717 310.608 82.5872 311.807 85.5261 313.101C88.8053 314.544 92.3542 316.095 97.1021 320.843L92.1524 325.793C88.3047 321.945 85.6745 320.814 82.7055 319.507C79.3961 318.05 75.7941 316.429 70.9218 311.557L75.8716 306.607ZM97.1021 320.843C101.875 325.616 103.194 328.958 104.406 332.061C105.428 334.676 106.349 337.085 110.265 341.001L105.316 345.951C100.469 341.105 99.1062 337.731 97.886 334.608C96.8562 331.971 95.9749 329.615 92.1524 325.793L97.1021 320.843ZM110.265 341.001C114.278 345.014 117.435 346.739 120.675 348.383C124.034 350.087 127.735 351.81 132.034 355.779L127.285 360.922C123.799 357.703 120.947 356.37 117.508 354.625C113.95 352.82 110.065 350.701 105.316 345.951L110.265 341.001ZM132.034 355.779C135.976 359.418 142.129 365.435 147.264 370.509C149.838 373.053 152.169 375.372 153.855 377.054C154.699 377.896 155.381 378.578 155.853 379.05C156.089 379.287 156.273 379.47 156.397 379.595C156.459 379.657 156.507 379.705 156.539 379.737C156.555 379.753 156.567 379.765 156.575 379.774C156.579 379.778 156.582 379.781 156.584 379.783C156.585 379.784 156.586 379.785 156.587 379.785C156.587 379.786 156.587 379.786 156.587 379.786C156.588 379.786 156.588 379.786 154.109 382.257C151.63 384.728 151.63 384.728 151.63 384.727C151.629 384.727 151.629 384.727 151.629 384.727C151.629 384.726 151.628 384.726 151.627 384.725C151.625 384.723 151.622 384.72 151.618 384.716C151.61 384.708 151.598 384.696 151.582 384.68C151.551 384.649 151.504 384.601 151.442 384.54C151.319 384.416 151.136 384.233 150.902 383.998C150.432 383.528 149.752 382.848 148.911 382.01C147.23 380.333 144.908 378.023 142.344 375.488C137.201 370.406 131.128 364.47 127.285 360.922L132.034 355.779Z" fill="#DFEEFA"/>
<g clip-path="url(#clip0_24_67)">
<path fill-rule="evenodd" clip-rule="evenodd" d="M156.36 157.556C156.36 157.556 34.6293 129.663 20.4717 97.5836C6.31408 65.5046 61.7576 6.38394 96.3878 21.6675C131.018 36.9511 156.36 157.556 156.36 157.556Z" fill="#2D5DA4"/>
</g>
<defs>
<clipPath id="clip0_24_67">
<rect width="194.951" height="194.951" fill="white" transform="translate(1 -1)"/>
</clipPath>
</defs>
</svg>
